<svg xmlns="http://www.w3.org/2000/svg" viewBox="0 0 1200 320" width="1200" height="320" role="img" aria-label="pr-storyteller — PR title + body + test plan, drafted from your diff.">
      <defs>
        <linearGradient id="bg" x1="0" x2="1" y1="0" y2="1">
          <stop offset="0%" stop-color="#0d1117"/>
          <stop offset="100%" stop-color="#161b22"/>
        </linearGradient>
        <linearGradient id="accentLine" x1="0" x2="1" y1="0" y2="0">
          <stop offset="0%" stop-color="#56d364" stop-opacity="0"/>
          <stop offset="50%" stop-color="#56d364" stop-opacity="1"/>
          <stop offset="100%" stop-color="#56d364" stop-opacity="0"/>
        </linearGradient>
      </defs>
      <rect width="1200" height="320" fill="url(#bg)"/>
      <rect x="0" y="0" width="1200" height="3" fill="url(#accentLine)"/>
      <text x="60" y="130" font-family="ui-sans-serif,system-ui,-apple-system,Segoe UI,Roboto,sans-serif" font-size="64" font-weight="800" fill="#e6edf3" letter-spacing="-1.5">pr-storyteller</text>
      <text x="60" y="175" font-family="ui-monospace,SFMono-Regular,Menlo,monospace" font-size="22" fill="#56d364">/pr-storyteller</text>
      <text x="60" y="225" font-family="ui-sans-serif,system-ui,sans-serif" font-size="22" fill="#8b949e">PR title + body + test plan, drafted from your diff.</text>
      <g transform="translate(820,60)">
    <circle cx="40" cy="60" r="7" fill="#79c0ff"/>
    <circle cx="40" cy="110" r="7" fill="#79c0ff"/>
    <circle cx="40" cy="160" r="7" fill="#79c0ff"/>
    <line x1="40" y1="68" x2="40" y2="102" stroke="#30363d" stroke-width="2"/>
    <line x1="40" y1="118" x2="40" y2="152" stroke="#30363d" stroke-width="2"/>
    <rect x="70" y="40" width="240" height="40" rx="8" fill="#161b22" stroke="#56d364" stroke-width="1.5"/>
    <text x="84" y="65" font-family="ui-monospace,monospace" font-size="13" fill="#56d364">feat(auth): rotate refresh tokens</text>
    <rect x="70" y="90" width="240" height="40" rx="8" fill="#161b22" stroke="#56d364" stroke-width="1"/>
    <text x="84" y="115" font-family="ui-monospace,monospace" font-size="13" fill="#8b949e">test(auth): cover replay path</text>
    <rect x="70" y="140" width="240" height="40" rx="8" fill="#161b22" stroke="#56d364" stroke-width="1"/>
    <text x="84" y="165" font-family="ui-monospace,monospace" font-size="13" fill="#8b949e">+ test plan, summary, risk</text>
</g>
      <text x="60" y="290" font-family="ui-monospace,monospace" font-size="13" fill="#6e7681">pluginpool · MIT · Python 3 stdlib only</text>
    </svg>
